<?xml version="1.0" standalone="no"?>
<svg viewBox="0 0 200 200" xmlns="http://www.w3.org/2000/svg">
  <path fill="#CEC4B8" d="M34.5,-59.1C43.3,-48,48.2,-36.1,56.3,-24C64.4,-12,75.8,0.3,79.5,15.1C83.1,30,78.9,47.4,67.3,55.1C55.6,62.8,36.4,60.8,21.6,58.1C6.7,55.4,-3.8,52.1,-18.9,52.9C-34.1,53.8,-53.9,58.8,-66.8,52.9C-79.7,47,-85.5,30.1,-83.5,14.7C-81.6,-0.7,-71.7,-14.4,-62.9,-26.7C-54.1,-38.9,-46.4,-49.5,-36.1,-60C-25.8,-70.5,-12.9,-80.9,0,-80.9C12.8,-80.8,25.6,-70.3,34.5,-59.1Z" transform="translate(100 100)" />
</svg>
