<?xml version="1.0" standalone="no"?>
<svg viewBox="0 0 200 200" xmlns="http://www.w3.org/2000/svg">
  <path fill="#CEC4B8" d="M43.8,-59.5C57,-59.6,68.2,-47.9,74.5,-34C80.9,-20.1,82.6,-4,74.3,6.4C66.1,16.7,48,21.4,38.6,35C29.2,48.7,28.4,71.5,21.6,73.5C14.7,75.6,1.7,57,-8.6,46.2C-18.9,35.5,-26.6,32.6,-34.7,27.6C-42.8,22.7,-51.4,15.6,-59.2,4.5C-67,-6.6,-74,-21.8,-72.9,-37.1C-71.9,-52.4,-62.7,-67.9,-49.2,-67.6C-35.7,-67.4,-17.8,-51.5,-1.3,-49.5C15.3,-47.5,30.5,-59.4,43.8,-59.5Z" transform="translate(100 100)" />
</svg>
